<?xml version="1.0" encoding="iso-8859-1"?>
<!-- Generator: Adobe Illustrator 19.0.0, SVG Export Plug-In . SVG Version: 6.00 Build 0)  -->
<svg version="1.1" id="Capa_1" xmlns="http://www.w3.org/2000/svg" xmlns:xlink="http://www.w3.org/1999/xlink" x="0px" y="0px"
	 viewBox="0 0 512 512" style="enable-background:new 0 0 512 512;" xml:space="preserve">
<path style="fill:#FEB756;" d="M339,176c-1,0-1.99,0.01-2.98,0.03c-13.71,0.26-27.07,2.31-39.85,5.93
	c-54.67,15.47-98.74,59.54-114.21,114.21c-3.62,12.78-5.67,26.14-5.93,39.85C176.01,337.01,176,338,176,339
	c0,88.37,74.63,163,163,163s163-74.63,163-163S427.37,176,339,176z"/>
<path style="fill:#3BCD92;" d="M336,175c0-1.34-0.02-3.67-0.05-5C333.74,83.36,260.03,10,173,10C84.63,10,10,84.63,10,173
	c0,87.03,72.39,160.74,159,162.95c1.33,0.03,4.66,0.05,6,0.05l1.03,0.02c0.26-13.71,2.31-27.07,5.93-39.85
	c15.47-54.67,59.54-98.74,114.21-114.21c12.78-3.62,26.14-5.67,39.85-5.93L336,175z"/>
<path d="M279,246c5.52,0,10-4.48,10-10s-4.48-10-10-10s-10,4.48-10,10S273.48,246,279,246z"/>
<path d="M345.811,166.154c-2.023-43.294-20.579-84.282-52.507-115.764C260.35,17.896,217.625,0,173,0C79.224,0,0,79.224,0,173
	c0,44.667,17.711,87.381,49.871,120.273c31.469,32.186,72.664,50.785,116.284,52.575C169.897,436.6,247.517,512,339,512
	c93.776,0,173-79.224,173-173C512,247.504,436.579,169.875,345.811,166.154z M20,173C20,90.065,90.065,20,173,20
	c79.608,0,148.751,66.74,152.81,146.534c-6.669,0.53-13.304,1.471-19.871,2.798c-0.992-32.928-15.279-65.442-39.555-89.717
	C241.209,54.439,207.171,40,173,40s-68.209,14.439-93.385,39.615S40,138.829,40,173s14.439,68.209,39.615,93.385
	c24.275,24.275,56.789,38.563,89.717,39.555c-1.329,6.58-2.272,13.229-2.801,19.909C86.823,322.302,20,252.935,20,173z
	 M205.317,230.43c-2.066-0.556-4.323-0.465-6.449,0.426c-5.27,2.206-10.791,3.324-16.409,3.324c-13.057,0-25.43-6.042-34.833-17.002
	c-3.586-4.189-6.593-8.985-8.976-14.178h52.679c5.523,0,10-4.477,10-10s-4.477-10-10-10h-58.327
	c-0.358-2.902-0.543-5.849-0.543-8.82c0-3.773,0.299-7.511,0.878-11.18h57.992c5.523,0,10-4.477,10-10s-4.477-10-10-10H139.78
	c2.19-4.3,4.819-8.285,7.842-11.812c9.401-10.968,21.773-17.008,34.837-17.008s25.437,6.04,34.837,17.008
	c3.594,4.193,9.907,4.679,14.101,1.085c4.193-3.594,4.679-9.907,1.085-14.101C219.22,102.7,201.456,94.18,182.459,94.18
	c-18.996,0-36.761,8.521-50.023,23.993c-6.125,7.147-11.044,15.625-14.455,24.827H98c-5.523,0-10,4.477-10,10s4.477,10,10,10h15.149
	c-0.452,3.691-0.689,7.424-0.689,11.18c0,2.959,0.149,5.903,0.428,8.82H98c-5.523,0-10,4.477-10,10s4.477,10,10,10h19.143
	c3.408,10.096,8.614,19.383,15.297,27.191c13.271,15.469,31.035,23.989,50.02,23.989c2.244,0,4.474-0.131,6.689-0.371
	c-5.872,10.147-10.747,20.92-14.495,32.183c-0.651,0.005-1.23,0.007-1.654,0.007c-60.196,0-113-52.804-113-113S112.804,60,173,60
	s113,52.804,113,113c0,0.424-0.003,1.003-0.007,1.654C254.148,185.25,226.214,204.878,205.317,230.43z M339,492
	c-82.935,0-153-70.065-153-153c0-0.932,0.009-1.855,0.028-2.79c0.239-12.595,2.108-25.149,5.554-37.317
	c14.6-51.592,55.718-92.711,107.313-107.311c12.165-3.446,24.719-5.314,37.314-5.554c0.004,0,0.008,0,0.012,0
	c0.923-0.019,1.846-0.028,2.778-0.028c82.935,0,153,70.065,153,153S421.935,492,339,492z"/>
<path d="M432.385,245.615C407.209,220.439,373.171,206,339,206c-7.751,0-15.55,0.696-23.18,2.068
	c-5.436,0.978-9.05,6.177-8.072,11.612c0.978,5.436,6.177,9.047,11.612,8.072C325.825,226.589,332.433,226,339,226
	c60.196,0,113,52.804,113,113s-52.804,113-113,113s-113-52.804-113-113c0-24.325,7.9-49.651,21.132-67.748
	c3.26-4.458,2.289-10.715-2.17-13.975c-4.458-3.26-10.715-2.289-13.975,2.17C215.341,280.846,206,310.585,206,339
	c0,34.171,14.439,68.209,39.615,93.385C270.791,457.561,304.829,472,339,472s68.209-14.439,93.385-39.615
	C457.561,407.209,472,373.171,472,339S457.561,270.791,432.385,245.615z"/>
<path d="M289,319c0,16.542,13.458,30,30,30h10v40h-10c-5.514,0-10-4.486-10-10c0-5.523-4.477-10-10-10s-10,4.477-10,10
	c0,16.542,13.458,30,30,30h10v10c0,5.523,4.477,10,10,10s10-4.477,10-10v-10h10c16.542,0,30-13.458,30-30v-20
	c0-16.542-13.458-30-30-30h-10v-40h10c5.514,0,10,4.486,10,10c0,5.523,4.477,10,10,10s10-4.477,10-10c0-16.542-13.458-30-30-30h-10
	v-10c0-5.523-4.477-10-10-10s-10,4.477-10,10v10h-10c-16.542,0-30,13.458-30,30V319z M359,349c5.514,0,10,4.486,10,10v20
	c0,5.514-4.486,10-10,10h-10v-40H359z M309,299c0-5.514,4.486-10,10-10h10v40h-10c-5.514,0-10-4.486-10-10V299z"/>
<path d="M336,46h20c5.523,0,10-4.477,10-10s-4.477-10-10-10h-20c-5.523,0-10,4.477-10,10S330.477,46,336,46z"/>
<path d="M396,46h20c5.523,0,10-4.477,10-10s-4.477-10-10-10h-20c-5.523,0-10,4.477-10,10S390.477,46,396,46z"/>
<path d="M476,146c-5.523,0-10,4.477-10,10v20c0,5.523,4.477,10,10,10s10-4.477,10-10v-20C486,150.477,481.523,146,476,146z"/>
<path d="M486,96c0-5.523-4.477-10-10-10s-10,4.477-10,10v20c0,5.523,4.477,10,10,10s10-4.477,10-10V96z"/>
<path d="M456,46c5.514,0,10,4.486,10,10c0,5.523,4.477,10,10,10s10-4.477,10-10c0-16.542-13.458-30-30-30c-5.523,0-10,4.477-10,10
	S450.477,46,456,46z"/>
<path d="M176,466h-20c-5.523,0-10,4.477-10,10s4.477,10,10,10h20c5.523,0,10-4.477,10-10S181.523,466,176,466z"/>
<path d="M116,466H96c-5.523,0-10,4.477-10,10s4.477,10,10,10h20c5.523,0,10-4.477,10-10S121.523,466,116,466z"/>
<path d="M36,366c5.523,0,10-4.477,10-10v-20c0-5.523-4.477-10-10-10s-10,4.477-10,10v20C26,361.523,30.477,366,36,366z"/>
<path d="M26,416c0,5.523,4.477,10,10,10s10-4.477,10-10v-20c0-5.523-4.477-10-10-10s-10,4.477-10,10V416z"/>
<path d="M56,466c-5.514,0-10-4.486-10-10c0-5.523-4.477-10-10-10s-10,4.477-10,10c0,16.542,13.458,30,30,30c5.523,0,10-4.477,10-10
	S61.523,466,56,466z"/>
<g>
</g>
<g>
</g>
<g>
</g>
<g>
</g>
<g>
</g>
<g>
</g>
<g>
</g>
<g>
</g>
<g>
</g>
<g>
</g>
<g>
</g>
<g>
</g>
<g>
</g>
<g>
</g>
<g>
</g>
</svg>
